<svg width="37" height="37" viewBox="0 0 37 37" fill="none" xmlns="http://www.w3.org/2000/svg">
<g clip-path="url(#clip0_29_26)">
<path d="M18.5 37C28.7173 37 37 28.7173 37 18.5C37 8.28273 28.7173 0 18.5 0C8.28273 0 0 8.28273 0 18.5C0 28.7173 8.28273 37 18.5 37Z" fill="#D9D9D9"/>
<path fill-rule="evenodd" clip-rule="evenodd" d="M29.2768 12.8508C29.4538 12.3362 29.2768 11.962 28.4935 11.962H25.8891C25.2321 11.962 24.9288 12.2896 24.7517 12.64C24.7517 12.64 23.4119 15.633 21.541 17.5733C20.9344 18.1345 20.6564 18.3216 20.3277 18.3216C20.1506 18.3216 19.9228 18.1345 19.9228 17.6204V12.8266C19.9228 12.2188 19.7209 11.9382 19.1644 11.9382H15.0686C14.6637 11.9382 14.4111 12.2188 14.4111 12.4994C14.4111 13.0839 15.3465 13.2244 15.4475 14.861V18.4169C15.4475 19.1884 15.2983 19.3295 14.9671 19.3295C14.0824 19.3295 11.9335 16.3132 10.6445 12.8764C10.3938 12.1956 10.1392 11.9382 9.48175 11.9382H6.85246C6.09406 11.9382 5.96774 12.2654 5.96774 12.6163C5.96774 13.2477 6.85246 16.4273 10.0885 20.6357C12.2373 23.51 15.2963 25.0549 18.0519 25.0549C19.7209 25.0549 19.9228 24.7041 19.9228 24.1196V21.9452C19.9228 21.2439 20.0745 21.1271 20.6057 21.1271C20.9846 21.1271 21.6674 21.3137 23.2096 22.6934C24.9791 24.3299 25.2823 25.0781 26.2686 25.0781H28.8724C29.6309 25.0781 29.9849 24.7273 29.7825 24.0493C29.5552 23.3714 28.6954 22.3895 27.5829 21.2206C26.9762 20.5664 26.0661 19.8414 25.7882 19.4905C25.4092 19.0229 25.5102 18.8359 25.7882 18.4151C25.7627 18.4151 28.9486 14.2532 29.2768 12.8489" fill="#14063B"/>
</g>
<defs>
<clipPath id="clip0_29_26">
<rect width="37" height="37" fill="white"/>
</clipPath>
</defs>
</svg>
