<svg width="36" height="36" viewBox="0 0 36 36" fill="none" xmlns="http://www.w3.org/2000/svg">
<g clip-path="url(#clip0_29_35)">
<path d="M18 36C27.9411 36 36 27.9411 36 18C36 8.05887 27.9411 0 18 0C8.05887 0 0 8.05887 0 18C0 27.9411 8.05887 36 18 36Z" fill="#D9D9D9"/>
<path d="M26.4513 10.6295C26.3485 10.5425 26.2233 10.4847 26.0894 10.4622C25.9557 10.4397 25.818 10.4534 25.6915 10.5019L8.88108 16.9491C8.64285 17.0399 8.44114 17.2041 8.30635 17.417C8.17156 17.6298 8.11098 17.8797 8.13371 18.1293C8.15645 18.3789 8.26128 18.6144 8.43242 18.8004C8.60357 18.9864 8.83176 19.113 9.08265 19.161L13.4383 19.9991V24.7588C13.4374 25.018 13.516 25.2715 13.664 25.4864C13.8118 25.7014 14.0222 25.8679 14.2677 25.9643C14.513 26.0624 14.7826 26.086 15.0416 26.0319C15.3007 25.9778 15.5371 25.8486 15.7202 25.6611L17.8205 23.5264L21.1526 26.3846C21.3929 26.5935 21.703 26.7091 22.0243 26.7097C22.1651 26.7096 22.305 26.6879 22.439 26.6455C22.6579 26.5775 22.8549 26.4544 23.0102 26.2884C23.1655 26.1226 23.2738 25.9197 23.3242 25.7001L26.691 11.3457C26.7212 11.2163 26.7147 11.0812 26.6725 10.955C26.6302 10.8289 26.5538 10.7164 26.4513 10.6295ZM21.3798 13.556L13.9484 18.7716L9.83417 17.9807L21.3798 13.556ZM14.7655 24.7588V20.8991L16.8218 22.6663L14.7655 24.7588ZM22.026 25.4091L15.1677 19.5154L25.0387 12.5822L22.026 25.4091Z" fill="#14063B"/>
</g>
<defs>
<clipPath id="clip0_29_35">
<rect width="36" height="36" fill="white"/>
</clipPath>
</defs>
</svg>
