<svg width="109" height="198" viewBox="0 0 109 198" fill="none" xmlns="http://www.w3.org/2000/svg">
<g clip-path="url(#clip0_22_169)">
<path d="M108.494 144C108.494 159 103.22 171.75 92.6715 182.25C82.1239 192.75 69.3154 198 54.2468 198C39.1783 198 26.37 192.75 15.822 182.25C5.274 171.75 6.5867e-07 159 0 144C-4.34719e-07 134.1 2.48632 125.025 7.45894 116.775C12.4316 108.525 18.9864 102 27.1234 97.1998V2.36042e-06L81.3705 0V18H108.494V72H81.3705V97.1998C89.5073 102 96.0624 108.525 101.035 116.775C106.008 125.025 108.494 134.1 108.494 144ZM90.4111 144C90.4111 134.1 87.3599 126.15 81.2575 120.15C75.1545 114.15 69.1647 110.55 63.2879 109.35V54H90.4111V36H63.2879V18H45.2057V109.35C39.3289 110.55 33.3392 114.15 27.2364 120.15C21.1337 126.15 18.0823 134.1 18.0823 144C18.0823 153.9 21.6234 162.375 28.7056 169.425C35.7879 176.475 44.3016 180 54.2468 180C64.1921 180 72.7059 176.475 79.788 169.425C86.8706 162.375 90.4111 153.9 90.4111 144ZM72.3291 144C72.3291 139.05 70.5586 134.813 67.0175 131.287C63.4763 127.762 59.2195 126 54.2468 126C49.2742 126 45.0173 127.762 41.4762 131.287C37.9351 134.813 36.1645 139.05 36.1645 144C36.1645 148.95 37.9351 153.188 41.4762 156.712C45.0173 160.237 49.2742 162 54.2468 162C59.2195 162 63.4763 160.237 67.0175 156.712C70.5586 153.188 72.3291 148.95 72.3291 144Z" fill="url(#paint0_linear_22_169)"/>
</g>
<defs>
<linearGradient id="paint0_linear_22_169" x1="35.0073" y1="-7.76518e-06" x2="-37.6635" y2="176.373" gradientUnits="userSpaceOnUse">
<stop offset="0.625" stop-color="white"/>
<stop offset="0.899557" stop-color="white" stop-opacity="0"/>
</linearGradient>
<clipPath id="clip0_22_169">
<rect width="109" height="198" fill="white"/>
</clipPath>
</defs>
</svg>
