<svg width="190" height="248" viewBox="0 0 190 248" fill="none" xmlns="http://www.w3.org/2000/svg">
<g clip-path="url(#clip0_22_153)">
<path d="M24.2734 224.755L47.5344 214.875C45.5715 208.905 43.7557 202.833 42.0873 196.657C40.4187 190.482 39.0937 184.307 38.1122 178.131L24.2734 188.012V224.755ZM71.3843 211.787H118.495C122.028 203.553 124.875 193.518 127.034 181.682C129.193 169.847 130.273 157.753 130.273 145.402C130.273 125.024 127.034 105.726 120.557 87.5089C114.079 69.2918 105.54 55.2429 94.9397 45.3624C84.3398 55.2429 75.8009 69.2918 69.3232 87.5089C62.8454 105.726 59.6066 125.024 59.6066 145.402C59.6066 157.753 60.6863 169.847 62.8454 181.682C65.0047 193.518 67.851 203.553 71.3843 211.787ZM94.9397 150.034C88.462 150.034 82.9167 147.615 78.3037 142.778C73.6908 137.941 71.3843 132.126 71.3843 125.333C71.3843 118.54 73.6908 112.725 78.3037 107.887C82.9167 103.05 88.462 100.631 94.9397 100.631C101.417 100.631 106.962 103.05 111.576 107.887C116.189 112.725 118.495 118.54 118.495 125.333C118.495 132.126 116.189 137.941 111.576 142.778C106.962 147.615 101.417 150.034 94.9397 150.034ZM165.606 224.755V188.012L151.768 178.131C150.786 184.307 149.461 190.482 147.792 196.657C146.124 202.833 144.308 208.905 142.346 214.875L165.606 224.755ZM94.9397 13.8684C114.373 28.6891 129.046 47.5238 138.959 70.3724C148.872 93.221 153.828 119.775 153.828 150.034L178.562 167.325C181.899 169.589 184.499 172.574 186.364 176.279C188.23 179.984 189.161 183.895 189.161 188.012V261.19L130.568 236.488H59.3121L0.717972 261.19V188.012C0.717972 183.895 1.65038 179.984 3.51518 176.279C5.37999 172.574 7.98091 169.589 11.3179 167.325L36.0511 150.034C36.0511 119.775 41.0076 93.221 50.9206 70.3724C60.8334 47.5238 75.5065 28.6891 94.9397 13.8684Z" fill="url(#paint0_linear_22_153)"/>
</g>
<defs>
<linearGradient id="paint0_linear_22_153" x1="5.76903" y1="-148.975" x2="228.394" y2="207.263" gradientUnits="userSpaceOnUse">
<stop offset="0.609375" stop-color="white"/>
<stop offset="0.899557" stop-color="white" stop-opacity="0"/>
</linearGradient>
<clipPath id="clip0_22_153">
<rect width="188.444" height="248" fill="white" transform="translate(0.717972)"/>
</clipPath>
</defs>
</svg>
