<svg width="216" height="211" viewBox="0 0 216 211" fill="none" xmlns="http://www.w3.org/2000/svg">
<g clip-path="url(#clip0_22_162)">
<path d="M153.892 195.516C137.53 191.632 120.983 190.989 104.249 193.59C87.5159 196.191 71.6492 201.819 56.6491 210.475L0.611328 113.465C15.4645 104.894 31.2789 99.3451 48.0546 96.818C64.8303 94.2909 81.5151 95.0005 98.1088 98.9476C102.986 82.6109 110.713 67.8138 121.291 54.5567C131.868 41.2997 144.584 30.3857 159.437 21.8146L215.475 118.825C200.327 127.565 187.481 138.506 176.934 151.647C166.388 164.789 158.707 179.412 153.892 195.516ZM140.647 172.587C145.921 160.332 152.591 149.135 160.654 138.994C168.718 128.853 177.883 119.939 188.148 112.252L152.997 51.4C143.365 59.5057 135.043 69.4529 128.029 81.2415C121.015 93.0298 115.456 106.575 111.354 121.877C96.045 117.777 81.529 115.815 67.8074 115.992C54.0858 116.169 41.3054 118.399 29.4662 122.684L64.6171 183.536C76.4109 178.494 88.7173 175.018 101.535 173.109C114.354 171.199 127.391 171.025 140.647 172.587ZM85.1187 76.4589C75.4125 82.0602 65.1084 83.4004 54.2059 80.4806C43.3034 77.5608 35.0504 71.2504 29.4466 61.5495C23.8428 51.8484 22.5016 41.5496 25.4229 30.6528C28.3442 19.756 34.6578 11.5072 44.3639 5.90633C54.0699 0.305459 64.3741 -1.03508 75.2765 1.8847C86.1791 4.80448 94.4319 11.1149 100.036 20.8159C105.639 30.5168 106.981 40.8158 104.06 51.7125C101.139 62.6093 94.8248 70.8581 85.1187 76.4589ZM74.9299 58.8208C79.7829 56.0204 82.9399 51.8959 84.4006 46.4476C85.8612 40.9992 85.1904 35.8498 82.3881 30.9993C79.5866 26.1487 75.4601 22.9936 70.0089 21.5337C64.5577 20.0738 59.4056 20.744 54.5526 23.5445C49.6995 26.3449 46.5427 30.4693 45.0821 35.9177C43.6214 41.3661 44.292 46.5155 47.0939 51.3661C49.8958 56.2165 54.0223 59.3718 59.4735 60.8317C64.9248 62.2916 70.0769 61.6212 74.9299 58.8208Z" fill="url(#paint0_linear_22_162)"/>
</g>
<defs>
<linearGradient id="paint0_linear_22_162" x1="-102.908" y1="-75.5698" x2="226.051" y2="117.305" gradientUnits="userSpaceOnUse">
<stop offset="0.447028" stop-color="#FFCEA1"/>
<stop offset="0.899557" stop-color="white"/>
</linearGradient>
<clipPath id="clip0_22_162">
<rect width="216" height="211" fill="white"/>
</clipPath>
</defs>
</svg>
