<svg width="218" height="191" viewBox="0 0 218 191" fill="none" xmlns="http://www.w3.org/2000/svg">
<path d="M87.7807 226.014C82.8631 228.867 77.6422 229.549 72.1184 228.062C66.5947 226.575 62.4132 223.362 59.5741 218.421L2.79079 119.621C-0.0483728 114.681 -0.727915 109.437 0.752166 103.887C2.23224 98.3384 5.43107 94.1384 10.3486 91.2858L46.1128 70.5432L35.7886 52.5795C32.9494 47.6395 32.2699 42.395 33.7499 36.846C35.23 31.297 38.4289 27.0965 43.3464 24.2444L79.1106 3.50163C84.0285 0.649503 89.2492 -0.0331407 94.7723 1.4537C100.296 2.94054 104.478 6.15398 107.317 11.094L117.641 29.0578L153.406 8.31503C158.323 5.4629 163.543 4.78026 169.067 6.2671C174.591 7.75394 178.773 10.9674 181.611 15.9074L238.395 114.708C241.234 119.648 241.914 124.892 240.434 130.441C238.954 135.991 235.755 140.191 230.837 143.043L87.7807 226.014ZM63.9949 60.1719L99.7593 39.4292L89.435 21.4654L53.6707 42.2081L63.9949 60.1719ZM199.865 89.1518L155.159 115.08L165.483 133.044L111.837 164.158L101.513 146.194L56.8077 172.123L77.4562 208.05L220.513 125.079L199.865 89.1518ZM119.395 135.823L137.277 125.452L126.952 107.488L109.071 117.859L119.395 135.823ZM46.4835 154.159L91.1885 128.23L80.8644 110.267L134.511 79.1529L144.835 97.117L189.54 71.1882L163.73 26.2788L20.6728 109.25L46.4835 154.159Z" fill="url(#paint0_linear_22_156)"/>
<defs>
<linearGradient id="paint0_linear_22_156" x1="-2.21061" y1="12.7305" x2="211.41" y2="232.978" gradientUnits="userSpaceOnUse">
<stop offset="0.0674487" stop-color="#FFCEA1"/>
<stop offset="1" stop-color="white" stop-opacity="0"/>
</linearGradient>
</defs>
</svg>
